<svg version="1.1" id="Layer_1" xmlns="http://www.w3.org/2000/svg" xmlns:xlink="http://www.w3.org/1999/xlink" x="0px" y="0px" viewBox="0 0 48 48" style="enable-background:new 0 0 512 512;" xml:space="preserve" width="48" height="48">
  <style type="text/css">
    .st0{fill-rule:evenodd;clip-rule:evenodd;fill:#FFFFFF;}
  </style>
  <g>
    <path class="st0" d="M9.151 9.169c-8.201 8.2 -8.202 21.496 -0.002 29.697l0.002 0.002c0.576 0.596 0.559 1.545 -0.037 2.121 -0.581 0.562 -1.503 0.562 -2.084 0 -9.372 -9.372 -9.373 -24.567 -0.001 -33.94l0.001 -0.001c0.576 -0.596 1.525 -0.612 2.121 -0.037 0.596 0.576 0.612 1.525 0.037 2.121zm29.698 -2.122c0.586 -0.586 1.536 -0.586 2.121 0 9.372 9.372 9.373 24.567 0.001 33.94l-0.001 0.001c-0.596 0.576 -1.545 0.559 -2.121 -0.037 -0.562 -0.581 -0.562 -1.503 0 -2.084 8.201 -8.2 8.202 -21.496 0.002 -29.697l-0.002 -0.002c-0.585 -0.586 -0.585 -1.536 0 -2.122M18 33.018c0 1.657 -1.343 3 -3 3s-3 -1.343 -3 -3 1.343 -3 3 -3 3 1.343 3 3m15 -19.5c0 -0.829 -0.671 -1.5 -1.5 -1.5s-1.5 0.671 -1.5 1.5v6.351l-5.228 -3.141c-0.711 -0.426 -1.632 -0.195 -2.058 0.516s-0.195 1.632 0.516 2.058l5.355 3.216 -5.355 3.213c-0.711 0.426 -0.942 1.347 -0.516 2.058 0.426 0.711 1.347 0.942 2.058 0.516L30 25.167v6.351c0 0.829 0.671 1.5 1.5 1.5s1.5 -0.671 1.5 -1.5v-6.351l5.228 3.138c0.711 0.426 1.632 0.195 2.058 -0.516s0.195 -1.632 -0.516 -2.058L34.416 22.519l5.355 -3.213c0.711 -0.426 0.942 -1.347 0.516 -2.058s-1.347 -0.942 -2.058 -0.516L33 19.869z"/>
  </g>
</svg>